<svg width="51" height="16" viewBox="0 0 51 16" fill="none" xmlns="http://www.w3.org/2000/svg">
<path d="M8.18938 15.26C6.05604 15.26 4.30271 14.56 2.92938 13.16C1.55604 11.7733 0.869375 10.0533 0.869375 8C0.869375 5.94667 1.55604 4.22667 2.92938 2.84C4.30271 1.44 6.05604 0.739999 8.18938 0.739999C9.45604 0.739999 10.6294 1.04667 11.7094 1.66C12.7894 2.27333 13.6294 3.1 14.2294 4.14L12.6094 5.08C12.2094 4.30667 11.6094 3.69333 10.8094 3.24C10.0227 2.77333 9.14938 2.54 8.18938 2.54C6.56271 2.54 5.24271 3.06 4.22938 4.1C3.21604 5.12667 2.70938 6.42667 2.70938 8C2.70938 9.56 3.21604 10.8533 4.22938 11.88C5.24271 12.92 6.56271 13.44 8.18938 13.44C9.14938 13.44 10.0227 13.2133 10.8094 12.76C11.6094 12.2933 12.2094 11.68 12.6094 10.92L14.2294 11.84C13.6427 12.88 12.8094 13.7133 11.7294 14.34C10.6627 14.9533 9.48271 15.26 8.18938 15.26ZM28.8039 9.7H21.5039V8.02H28.8039V9.7ZM48.2969 0.999999H50.3969V15H48.5569V4.06L43.9769 11.68H43.7369L39.1569 4.08V15H37.2969V0.999999H39.3969L43.8569 8.4L48.2969 0.999999Z" fill="black"/>
</svg>
