<svg width="176" height="16" viewBox="0 0 176 16" fill="none" xmlns="http://www.w3.org/2000/svg">
<path d="M7.48625 15.26C5.35292 15.26 3.59958 14.56 2.22625 13.16C0.852917 11.7733 0.16625 10.0533 0.16625 8C0.16625 5.94667 0.852917 4.22667 2.22625 2.84C3.59958 1.44 5.35292 0.739999 7.48625 0.739999C8.75292 0.739999 9.92625 1.04667 11.0063 1.66C12.0863 2.27333 12.9263 3.1 13.5263 4.14L11.9062 5.08C11.5063 4.30667 10.9063 3.69333 10.1063 3.24C9.31958 2.77333 8.44625 2.54 7.48625 2.54C5.85958 2.54 4.53958 3.06 3.52625 4.1C2.51292 5.12667 2.00625 6.42667 2.00625 8C2.00625 9.56 2.51292 10.8533 3.52625 11.88C4.53958 12.92 5.85958 13.44 7.48625 13.44C8.44625 13.44 9.31958 13.2133 10.1063 12.76C10.9063 12.2933 11.5063 11.68 11.9062 10.92L13.5263 11.84C12.9396 12.88 12.1063 13.7133 11.0263 14.34C9.95958 14.9533 8.77958 15.26 7.48625 15.26ZM22.9928 0.999999V13.24H29.0328V15H21.1328V0.999999H22.9928ZM47.9891 15H46.0091L44.8691 11.86H38.5691L37.4291 15H35.4491L40.6691 0.999999H42.7691L47.9891 15ZM41.7091 3.22L39.2091 10.12H44.2291L41.7091 3.22ZM61.6642 0.999999H63.7442L58.7842 9.34V15H56.9242V9.32L51.9842 0.999999H54.0642L57.8642 7.56L61.6642 0.999999ZM88.6945 9.7H81.3945V8.02H88.6945V9.7ZM118.688 0.999999H120.788V15H118.948V4.06L114.368 11.68H114.128L109.548 4.08V15H107.688V0.999999H109.788L114.248 8.4L118.688 0.999999ZM140.481 15H138.501L137.361 11.86H131.061L129.921 15H127.941L133.161 0.999999H135.261L140.481 15ZM134.201 3.22L131.701 10.12H136.721L134.201 3.22ZM147.633 0.999999H153.093C154.986 0.999999 156.566 1.68 157.833 3.04C159.099 4.38667 159.733 6.04 159.733 8C159.733 9.94667 159.099 11.6067 157.833 12.98C156.566 14.3267 154.986 15 153.093 15H147.633V0.999999ZM149.493 13.24H153.093C154.519 13.24 155.686 12.74 156.593 11.74C157.499 10.7267 157.953 9.48 157.953 8C157.953 6.52 157.499 5.27333 156.593 4.26C155.686 3.26 154.519 2.76 153.093 2.76H149.493V13.24ZM169.348 8.8V13.24H175.848V15H167.488V0.999999H175.748V2.76H169.348V7.06H175.248V8.8H169.348Z" fill="black"/>
</svg>
