<svg width="200" height="19" viewBox="0 0 200 19" fill="none" xmlns="http://www.w3.org/2000/svg">
<path d="M8.8835 18.312C6.3235 18.312 4.2195 17.472 2.5715 15.792C0.9235 14.128 0.0995001 12.064 0.0995001 9.6C0.0995001 7.136 0.9235 5.072 2.5715 3.408C4.2195 1.728 6.3235 0.887999 8.8835 0.887999C10.4035 0.887999 11.8115 1.256 13.1075 1.992C14.4035 2.728 15.4115 3.72 16.1315 4.968L14.1875 6.096C13.7075 5.168 12.9875 4.432 12.0275 3.888C11.0835 3.328 10.0355 3.048 8.8835 3.048C6.9315 3.048 5.3475 3.672 4.1315 4.92C2.9155 6.152 2.3075 7.712 2.3075 9.6C2.3075 11.472 2.9155 13.024 4.1315 14.256C5.3475 15.504 6.9315 16.128 8.8835 16.128C10.0355 16.128 11.0835 15.856 12.0275 15.312C12.9875 14.752 13.7075 14.016 14.1875 13.104L16.1315 14.208C15.4275 15.456 14.4275 16.456 13.1315 17.208C11.8515 17.944 10.4355 18.312 8.8835 18.312ZM26.3914 1.2V15.888H33.6394V18H24.1594V1.2H26.3914ZM55.2869 18H52.9109L51.5429 14.232H43.9829L42.6149 18H40.2389L46.5029 1.2H49.0229L55.2869 18ZM47.7509 3.864L44.7509 12.144H50.7749L47.7509 3.864ZM70.5971 1.2H73.0931L67.1411 11.208V18H64.9091V11.184L58.9811 1.2H61.4771L66.0371 9.072L70.5971 1.2ZM100.833 11.64H92.0734V9.624H100.833V11.64ZM134.625 1.2H137.145V18H134.937V4.872L129.441 14.016H129.153L123.657 4.896V18H121.425V1.2H123.945L129.297 10.08L134.625 1.2ZM159.678 18H157.302L155.934 14.232H148.374L147.006 18H144.63L150.894 1.2H153.414L159.678 18ZM152.142 3.864L149.142 12.144H155.166L152.142 3.864ZM167.159 1.2H173.711C175.983 1.2 177.879 2.016 179.399 3.648C180.919 5.264 181.679 7.248 181.679 9.6C181.679 11.936 180.919 13.928 179.399 15.576C177.879 17.192 175.983 18 173.711 18H167.159V1.2ZM169.391 15.888H173.711C175.423 15.888 176.823 15.288 177.911 14.088C178.999 12.872 179.543 11.376 179.543 9.6C179.543 7.824 178.999 6.328 177.911 5.112C176.823 3.912 175.423 3.312 173.711 3.312H169.391V15.888ZM192.118 10.56V15.888H199.918V18H189.886V1.2H199.798V3.312H192.118V8.472H199.198V10.56H192.118Z" fill="white"/>
</svg>
